<svg xmlns="http://www.w3.org/2000/svg" width="1260.308" height="215.357" viewBox="0 0 1260.308 215.357">
  <g id="banner" transform="translate(-1157.557 -895.896)">
    <g id="Group_80" data-name="Group 80" transform="translate(2155.174 898.556) rotate(6)">
      <path id="Path_19" data-name="Path 19" d="M19.1,42.422,37.45.5,60.862,45.259Z" fill="#fff"/>
      <path id="Path_20" data-name="Path 20" d="M51.119,81.017,60.264,43.46,91.091,81.083Z" fill="#075475"/>
      <path id="Path_21" data-name="Path 21" d="M86.553,116.861l2.153-38.2L128.393,111.6Z" fill="#fff"/>
      <path id="Path_22" data-name="Path 22" d="M129.107,148.54l-3.444-38.663,31.263,15.4,17.512,6.547Z" fill="#075475"/>
      <path id="Path_23" data-name="Path 23" d="M184.022,168.471l-12.251-36.32,52.744,10.9Z" fill="#fff"/>
      <path id="Path_24" data-name="Path 24" d="M244.187,178.845l-22.026-36.658,56.818-.976Z" fill="#075475"/>
    </g>
    <g id="Group_9" data-name="Group 9" transform="translate(1137.568 932.774) rotate(-8)">
      <path id="Path_25" data-name="Path 25" d="M256.963,41.05,239.154-1.127,215.782,44.2Z" fill="#fff"/>
      <path id="Path_26" data-name="Path 26" d="M225.151,80.214l-8.768-37.832L185.75,80.556Z" fill="#075475"/>
      <path id="Path_27" data-name="Path 27" d="M189.988,116.625l-1.871-38.532-39.336,33.512Z" fill="#fff"/>
      <path id="Path_28" data-name="Path 28" d="M147.835,148.882l3.649-39.035L120.567,125.6l-17.305,6.727Z" fill="#075475"/>
      <path id="Path_29" data-name="Path 29" d="M93.575,169.372l12.314-36.732L53.828,144Z" fill="#fff"/>
      <path id="Path_30" data-name="Path 30" d="M34.2,180.254l21.951-37.14-56-.592Z" fill="#075475"/>
    </g>
    <g id="Group_10" data-name="Group 10" transform="matrix(1, 0.017, -0.017, 1, 1633.82, 904.464)">
      <path id="Path_1" data-name="Path 1" d="M41.384,42.914,46.743,0,22.413,15.907,0,29.211Z" transform="translate(251.757 2.523)" fill="#075475"/>
      <path id="Path_2" data-name="Path 2" d="M28.017,37.169,53.124,0,0,6.233Z" transform="translate(150.176 44.787)" fill="#075475"/>
      <path id="Path_3" data-name="Path 3" d="M24.937,40.062,56.669,6.81,0,0Z" transform="translate(95.162 44.033)" fill="#fff"/>
      <path id="Path_4" data-name="Path 4" d="M14.7,45.118,50.932,19.6,0,0Z" transform="translate(46.385 26.034)" fill="#075475"/>
      <path id="Path_5" data-name="Path 5" d="M4.654,46.712,49.151,26.3,21.718,14.249,0,0Z" transform="translate(0 0)" fill="#fff"/>
      <path id="Path_6" data-name="Path 6" d="M37.434,39.741,52.693,0,0,18.844Z" transform="translate(199.584 27.268)" fill="#fff"/>
    </g>
    <g id="Group_12" data-name="Group 12" transform="matrix(1, -0.017, 0.017, 1, 1356.132, 917.448)">
      <path id="Path_7" data-name="Path 7" d="M264.942,44.753l-1-44.706L229.679,37.675Z" fill="#075475"/>
      <path id="Path_8" data-name="Path 8" d="M225.6,72.69l6.118-37.248-37.469,29.01Z" fill="#fff"/>
      <path id="Path_9" data-name="Path 9" d="M184.549,97.1l11.82-34.868L151.653,83.682Z" fill="#075475"/>
      <path id="Path_10" data-name="Path 10" d="M139.139,116.179,156.3,82.547l-47.954,7.906Z" fill="#fff"/>
      <path id="Path_11" data-name="Path 11" d="M89.043,120.892l22.64-31L63.758,88.543Z" fill="#075475"/>
      <path id="Path_12" data-name="Path 12" d="M35.9,116.942,66.718,88.8,42.941,83.085,19.313,76.734Z" fill="#fff"/>
    </g>
    <g id="Group_79" data-name="Group 79" transform="matrix(1, -0.017, 0.017, 1, 1917.345, 912.128)">
      <path id="Path_13" data-name="Path 13" d="M28.093,44.277l1-44.705L63.356,37.2Z" fill="#075475"/>
      <path id="Path_14" data-name="Path 14" d="M67.44,72.214,61.322,34.967l37.469,29.01Z" fill="#fff"/>
      <path id="Path_15" data-name="Path 15" d="M108.486,96.628,96.666,61.759l44.716,21.447Z" fill="#075475"/>
      <path id="Path_16" data-name="Path 16" d="M153.9,115.7l-17.16-33.632,47.953,7.906Z" fill="#fff"/>
      <path id="Path_17" data-name="Path 17" d="M204.662,121.047,182.729,90.382l46.577-1.132Z" fill="#075475"/>
      <path id="Path_18" data-name="Path 18" d="M257.088,116.131l-32.22-26.467,21.94-6.41L271.6,75.1Z" fill="#fff"/>
    </g>
  </g>
</svg>
