<svg xmlns="http://www.w3.org/2000/svg" width="290.582" height="227.38" viewBox="0 0 290.582 227.38">
  <g id="Congrats_left" data-name="Congrats left" transform="translate(-606 -863)">
    <path id="Path_7" data-name="Path 7" d="M115.814.125.012,171.505c9.78-5.35,194.563-78.71,194.563-78.71S137.854,76.386,115.814.125Z" transform="translate(605.988 918.875)" fill="#075475"/>
    <path id="Path_73" data-name="Path 73" d="M9.3,23.763l3.146-8.072,8.34-2.463L13.116,9.137,11.233.452l-3.549,8.1L.2,11l6.81,4.1Z" transform="translate(805.801 862.548)" fill="#fff"/>
    <path id="Path_74" data-name="Path 74" d="M8.622,19.446l2.787-6.517L19,11.022,11.955,7.616,10.145.545,6.989,7.079.182,8.987l6.261,3.4Z" transform="translate(769.818 862.455)" fill="#075475"/>
    <path id="Path_75" data-name="Path 75" d="M9.453,23.713,12.6,15.64l8.34-2.463L13.274,9.086,11.391.4,7.841,8.5.357,10.951l6.81,4.1Z" transform="translate(749.643 903.599)" fill="#fff"/>
    <path id="Path_76" data-name="Path 76" d="M9.623,23.813l3.146-8.073,8.34-2.463L13.443,9.186,11.561.5,8.011,8.6.526,11.051l6.81,4.1Z" transform="translate(843.474 862.499)" fill="#075475"/>
    <path id="Path_77" data-name="Path 77" d="M9.6,23.42l3.146-8.073,8.34-2.463L13.418,8.793,11.535.108l-3.55,8.1L.5,10.658l6.81,4.1Z" transform="translate(823.499 906.892)" fill="#fff"/>
    <path id="Path_78" data-name="Path 78" d="M9.341,23.436l3.146-8.073,8.34-2.463L13.161,8.809,11.278.124l-3.55,8.1L.244,10.674l6.81,4.1Z" transform="translate(776.756 926.876)" fill="#075475"/>
    <path id="Path_79" data-name="Path 79" d="M9.651,23.513,12.8,15.44l8.34-2.463L13.471,8.886,11.589.2,8.039,8.3.554,10.751l6.81,4.1Z" transform="translate(806.446 953.799)" fill="#fff"/>
    <path id="Path_80" data-name="Path 80" d="M9.332,23.6l3.146-8.072,8.34-2.463L13.153,8.973,11.27.288,7.72,8.386.236,10.838l6.81,4.1Z" transform="translate(854.764 941.712)" fill="#075475"/>
    <path id="Path_81" data-name="Path 81" d="M9.807,24.09l3.146-8.072,8.34-2.463L13.628,9.463,11.745.778,8.2,8.876.711,11.328l6.81,4.1Z" transform="translate(875.289 906.222)" fill="#fff"/>
    <path id="Path_24" data-name="Path 24" d="M14.361.494s-1.372,20.358,4.062,40.887C22.883,58.229,32.684,75.2,45.779,80.91c.611.267-7.329,3.116-8.213,3.449-1.2.454,2.617-1.147-7.433,2.993,0,0-33.448-27.455-29.513-65.752C.717,20.651,14.064,1.138,14.361.494c.429.074-1.957,2.933-.956,1.428,2.437-3.668-4.3,6.853-4.3,6.853Z" transform="translate(678.702 960.506)" fill="#fff"/>
    <path id="Path_25" data-name="Path 25" d="M8.778.242S7.481,14.2,10.186,26.986c4.048,10.651,7.993,17,14.8,20.466.318.162-4.424,1.7-4.889,1.913-.63.294,1.377-.737-3.909,1.927,0,0-17.61-14.472-15.293-38.434C.957,12.263,8.619.647,8.778.242c.224.043-1.044,1.848-.51.9,1.3-2.312-2.295,4.316-2.295,4.316Z" transform="translate(645.31 1016.758)" fill="#fff"/>
  </g>
</svg>
