<svg xmlns="http://www.w3.org/2000/svg" width="290.582" height="227.38" viewBox="0 0 290.582 227.38">
  <g id="Congrats_right" data-name="Congrats right" transform="translate(0 0)">
    <path id="Path_7" data-name="Path 7" d="M78.773.125l115.8,171.38C184.8,166.155.012,92.795.012,92.795S56.733,76.386,78.773.125Z" transform="translate(96.007 55.875)" fill="#075475"/>
    <path id="Path_73" data-name="Path 73" d="M11.685,23.763,8.539,15.691.2,13.228,7.864,9.137,9.747.452l3.549,8.1L20.781,11l-6.81,4.1Z" transform="translate(69.801 -0.452)" fill="#fff"/>
    <path id="Path_74" data-name="Path 74" d="M10.557,19.446,7.77,12.929.182,11.022,7.223,7.616,9.034.545,12.19,7.079,19,8.987l-6.261,3.4Z" transform="translate(107.585 -0.545)" fill="#075475"/>
    <path id="Path_75" data-name="Path 75" d="M11.842,23.713,8.7,15.64.357,13.177,8.022,9.086,9.9.4l3.549,8.1,7.485,2.453-6.81,4.1Z" transform="translate(125.643 40.599)" fill="#fff"/>
    <path id="Path_76" data-name="Path 76" d="M12.012,23.813,8.866,15.741.526,13.278,8.192,9.186,10.074.5l3.55,8.1,7.485,2.452-6.81,4.1Z" transform="translate(31.473 -0.501)" fill="#075475"/>
    <path id="Path_77" data-name="Path 77" d="M11.986,23.42,8.841,15.347.5,12.884,8.166,8.793,10.049.108l3.55,8.1,7.485,2.452-6.81,4.1Z" transform="translate(51.499 43.892)" fill="#fff"/>
    <path id="Path_78" data-name="Path 78" d="M11.73,23.436,8.584,15.363.244,12.9,7.909,8.809,9.792.124l3.55,8.1,7.485,2.453-6.81,4.1Z" transform="translate(98.756 63.876)" fill="#075475"/>
    <path id="Path_79" data-name="Path 79" d="M12.04,23.513,8.894,15.44.554,12.977,8.22,8.886,10.1.2l3.55,8.1,7.485,2.452-6.81,4.1Z" transform="translate(68.445 90.799)" fill="#fff"/>
    <path id="Path_80" data-name="Path 80" d="M11.721,23.6,8.576,15.528.236,13.065,7.9,8.973,9.784.288l3.549,8.1,7.485,2.452-6.81,4.1Z" transform="translate(20.764 78.712)" fill="#075475"/>
    <path id="Path_81" data-name="Path 81" d="M12.2,24.09,9.051,16.017.711,13.555,8.376,9.463,10.259.778l3.549,8.1,7.485,2.452-6.81,4.1Z" transform="translate(-0.711 43.222)" fill="#fff"/>
    <path id="Path_24" data-name="Path 24" d="M31.75.494s1.372,20.358-4.062,40.887C23.227,58.229,13.427,75.2.332,80.91c-.611.267,7.329,3.116,8.213,3.449,1.2.454-2.617-1.147,7.433,2.993,0,0,33.448-27.455,29.513-65.752C45.394,20.651,32.046,1.138,31.75.494c-.429.074,1.957,2.933.956,1.428C30.269-1.746,37,8.775,37,8.775Z" transform="translate(171.769 97.506)" fill="#fff"/>
    <path id="Path_25" data-name="Path 25" d="M16.917.242s1.3,13.956-1.407,26.744c-4.048,10.651-7.993,17-14.8,20.466-.318.162,4.424,1.7,4.889,1.913.63.294-1.377-.737,3.909,1.927,0,0,17.61-14.472,15.293-38.434C24.738,12.263,17.076.647,16.917.242c-.224.043,1.044,1.848.51.9-1.3-2.312,2.295,4.316,2.295,4.316Z" transform="translate(225.577 153.758)" fill="#fff"/>
  </g>
</svg>
